<svg xmlns="http://www.w3.org/2000/svg" xmlns:xlink="http://www.w3.org/1999/xlink" width="130" height="142" viewBox="0 0 130 142" fill="none">
<rect  x="0" y="12" width="130" height="130" rx="10"    fill="#E5E5E5" >
</rect>
<g >
<path     fill="#0F7FFF" fill-opacity="0.6" d="M69.2 117.4C78.9 117.4 86.8 113.6 92.9 106.5L85 97.3C81.1 101.6 76.2 104.6 69.8 104.6C58.1 104.6 50.6 94.9 50.6 78.8C50.6 62.9 58.9 53.3 70.1 53.3C75.7 53.3 80 55.9 83.8 59.5L91.5 50.1C86.7 45.1 79.3 40.6 69.8 40.6C51.1 40.6 35.4 54.9 35.4 79.3C35.4 104 50.6 117.4 69.2 117.4Z">
</path>
</g>
</svg>
